# xmcd CD database file
#
# Track frame offsets:
#	150
#	17242
#	35167
#	54627
#	74452
#	90760
#	113617
#	132240
#	156490
#	172852
#	188490
#	203737
#	218430
#
# Disc length: 3047 seconds
#
# Revision: 0
# Processed by: cddbd v1.5.2PL0 Copyright (c) Steve Scherf et al.
# Submitted via: CDex 1.51
#
DISCID=a80be50d
DTITLE=Psycho Zydeco - Swamp Box
DYEAR=1995
DGENRE=Blues
TTITLE0=Goin' Down Lousiana Way
TTITLE1=Feet Don't Fail Me Now
TTITLE2=Hee Haw Zydeco
TTITLE3=Gumbo
TTITLE4=Turn on Your Love Light
TTITLE5=Ol' Lady Done Me Wrong Blues
TTITLE6=Swamp Box
TTITLE7=Soutbound Train
TTITLE8=Listen to Me
TTITLE9=Oh Josephine
TTITLE10=Turn Up Your Radio
TTITLE11=Babe Please Don't Go
TTITLE12=E'trange De Pas
EXTD=YEAR: 1995
EXTT0=
EXTT1=
EXTT2=
EXTT3=
EXTT4=
EXTT5=
EXTT6=
EXTT7=
EXTT8=
EXTT9=
EXTT10=
EXTT11=
EXTT12=
PLAYORDER=
